<?xml version="1.0" encoding="utf-8" standalone="no"?>
<!DOCTYPE svg PUBLIC "-//W3C//DTD SVG 1.1//EN"
  "http://www.w3.org/Graphics/SVG/1.1/DTD/svg11.dtd">
<svg xmlns:xlink="http://www.w3.org/1999/xlink" width="664.78125pt" height="400.842004pt" viewBox="0 0 664.78125 400.842004" xmlns="http://www.w3.org/2000/svg" version="1.1">
 <metadata>
  <rdf:RDF xmlns:dc="http://purl.org/dc/elements/1.1/" xmlns:cc="http://creativecommons.org/ns#" xmlns:rdf="http://www.w3.org/1999/02/22-rdf-syntax-ns#">
   <cc:Work>
    <dc:type rdf:resource="http://purl.org/dc/dcmitype/StillImage"/>
    <dc:date>2026-06-25T15:01:31.529199</dc:date>
    <dc:format>image/svg+xml</dc:format>
    <dc:creator>
     <cc:Agent>
      <dc:title>Matplotlib v3.10.8, https://matplotlib.org/</dc:title>
     </cc:Agent>
    </dc:creator>
   </cc:Work>
  </rdf:RDF>
 </metadata>
 <defs>
  <style type="text/css">*{stroke-linejoin: round; stroke-linecap: butt}</style>
 </defs>
 <g id="figure_1">
  <g id="patch_1">
   <path d="M 0 400.842004 
L 664.78125 400.842004 
L 664.78125 0 
L 0 0 
z
" style="fill: #ffffff"/>
  </g>
  <g id="axes_1">
   <g id="patch_2">
    <path d="M 43.78125 332.782125 
L 657.58125 332.782125 
L 657.58125 22.318125 
L 43.78125 22.318125 
z
" style="fill: #ffffff"/>
   </g>
   <g id="patch_3">
    <path d="M 71.68125 300.939663 
L 114.240572 300.939663 
L 114.240572 142.043127 
L 71.68125 142.043127 
z
" clip-path="url(#p62bf260879)" style="fill: #2f6f9f"/>
   </g>
   <g id="patch_4">
    <path d="M 189.901589 300.939663 
L 232.460911 300.939663 
L 232.460911 131.393681 
L 189.901589 131.393681 
z
" clip-path="url(#p62bf260879)" style="fill: #2f6f9f"/>
   </g>
   <g id="patch_5">
    <path d="M 308.121928 300.939663 
L 350.68125 300.939663 
L 350.68125 178.794369 
L 308.121928 178.794369 
z
" clip-path="url(#p62bf260879)" style="fill: #2f6f9f"/>
   </g>
   <g id="patch_6">
    <path d="M 426.342267 300.939663 
L 468.901589 300.939663 
L 468.901589 121.853414 
L 426.342267 121.853414 
z
" clip-path="url(#p62bf260879)" style="fill: #2f6f9f"/>
   </g>
   <g id="patch_7">
    <path d="M 544.562606 300.939663 
L 587.121928 300.939663 
L 587.121928 44.458719 
L 544.562606 44.458719 
z
" clip-path="url(#p62bf260879)" style="fill: #2f6f9f"/>
   </g>
   <g id="patch_8">
    <path d="M 114.240572 300.939663 
L 156.799894 300.939663 
L 156.799894 131.746602 
L 114.240572 131.746602 
z
" clip-path="url(#p62bf260879)" style="fill: #2c8c84"/>
   </g>
   <g id="patch_9">
    <path d="M 232.460911 300.939663 
L 275.020233 300.939663 
L 275.020233 143.186802 
L 232.460911 143.186802 
z
" clip-path="url(#p62bf260879)" style="fill: #2c8c84"/>
   </g>
   <g id="patch_10">
    <path d="M 350.68125 300.939663 
L 393.240572 300.939663 
L 393.240572 303.194906 
L 350.68125 303.194906 
z
" clip-path="url(#p62bf260879)" style="fill: #2c8c84"/>
   </g>
   <g id="patch_11">
    <path d="M 468.901589 300.939663 
L 511.460911 300.939663 
L 511.460911 204.383767 
L 468.901589 204.383767 
z
" clip-path="url(#p62bf260879)" style="fill: #2c8c84"/>
   </g>
   <g id="patch_12">
    <path d="M 587.121928 300.939663 
L 629.68125 300.939663 
L 629.68125 53.329498 
L 587.121928 53.329498 
z
" clip-path="url(#p62bf260879)" style="fill: #2c8c84"/>
   </g>
   <g id="matplotlib.axis_1">
    <g id="xtick_1">
     <g id="line2d_1">
      <defs>
       <path id="m50e11fd607" d="M 0 0 
L 0 3.5 
" style="stroke: #000000; stroke-width: 0.8"/>
      </defs>
      <g>
       <use xlink:href="#m50e11fd607" x="114.240572" y="332.782125" style="stroke: #000000; stroke-width: 0.8"/>
      </g>
     </g>
     <g id="text_1">
      <!-- INX -->
      <g transform="translate(105.599947 347.380562) scale(0.1 -0.1)">
       <defs>
        <path id="DejaVuSans-49" d="M 628 4666 
L 1259 4666 
L 1259 0 
L 628 0 
L 628 4666 
z
" transform="scale(0.015625)"/>
        <path id="DejaVuSans-4e" d="M 628 4666 
L 1478 4666 
L 3547 763 
L 3547 4666 
L 4159 4666 
L 4159 0 
L 3309 0 
L 1241 3903 
L 1241 0 
L 628 0 
L 628 4666 
z
" transform="scale(0.015625)"/>
        <path id="DejaVuSans-58" d="M 403 4666 
L 1081 4666 
L 2241 2931 
L 3406 4666 
L 4084 4666 
L 2584 2425 
L 4184 0 
L 3506 0 
L 2194 1984 
L 872 0 
L 191 0 
L 1856 2491 
L 403 4666 
z
" transform="scale(0.015625)"/>
       </defs>
       <use xlink:href="#DejaVuSans-49"/>
       <use xlink:href="#DejaVuSans-4e" transform="translate(29.492188 0)"/>
       <use xlink:href="#DejaVuSans-58" transform="translate(104.296875 0)"/>
      </g>
      <!-- performance -->
      <g transform="translate(82.217916 358.578375) scale(0.1 -0.1)">
       <defs>
        <path id="DejaVuSans-70" d="M 1159 525 
L 1159 -1331 
L 581 -1331 
L 581 3500 
L 1159 3500 
L 1159 2969 
Q 1341 3281 1617 3432 
Q 1894 3584 2278 3584 
Q 2916 3584 3314 3078 
Q 3713 2572 3713 1747 
Q 3713 922 3314 415 
Q 2916 -91 2278 -91 
Q 1894 -91 1617 61 
Q 1341 213 1159 525 
z
M 3116 1747 
Q 3116 2381 2855 2742 
Q 2594 3103 2138 3103 
Q 1681 3103 1420 2742 
Q 1159 2381 1159 1747 
Q 1159 1113 1420 752 
Q 1681 391 2138 391 
Q 2594 391 2855 752 
Q 3116 1113 3116 1747 
z
" transform="scale(0.015625)"/>
        <path id="DejaVuSans-65" d="M 3597 1894 
L 3597 1613 
L 953 1613 
Q 991 1019 1311 708 
Q 1631 397 2203 397 
Q 2534 397 2845 478 
Q 3156 559 3463 722 
L 3463 178 
Q 3153 47 2828 -22 
Q 2503 -91 2169 -91 
Q 1331 -91 842 396 
Q 353 884 353 1716 
Q 353 2575 817 3079 
Q 1281 3584 2069 3584 
Q 2775 3584 3186 3129 
Q 3597 2675 3597 1894 
z
M 3022 2063 
Q 3016 2534 2758 2815 
Q 2500 3097 2075 3097 
Q 1594 3097 1305 2825 
Q 1016 2553 972 2059 
L 3022 2063 
z
" transform="scale(0.015625)"/>
        <path id="DejaVuSans-72" d="M 2631 2963 
Q 2534 3019 2420 3045 
Q 2306 3072 2169 3072 
Q 1681 3072 1420 2755 
Q 1159 2438 1159 1844 
L 1159 0 
L 581 0 
L 581 3500 
L 1159 3500 
L 1159 2956 
Q 1341 3275 1631 3429 
Q 1922 3584 2338 3584 
Q 2397 3584 2469 3576 
Q 2541 3569 2628 3553 
L 2631 2963 
z
" transform="scale(0.015625)"/>
        <path id="DejaVuSans-66" d="M 2375 4863 
L 2375 4384 
L 1825 4384 
Q 1516 4384 1395 4259 
Q 1275 4134 1275 3809 
L 1275 3500 
L 2222 3500 
L 2222 3053 
L 1275 3053 
L 1275 0 
L 697 0 
L 697 3053 
L 147 3053 
L 147 3500 
L 697 3500 
L 697 3744 
Q 697 4328 969 4595 
Q 1241 4863 1831 4863 
L 2375 4863 
z
" transform="scale(0.015625)"/>
        <path id="DejaVuSans-6f" d="M 1959 3097 
Q 1497 3097 1228 2736 
Q 959 2375 959 1747 
Q 959 1119 1226 758 
Q 1494 397 1959 397 
Q 2419 397 2687 759 
Q 2956 1122 2956 1747 
Q 2956 2369 2687 2733 
Q 2419 3097 1959 3097 
z
M 1959 3584 
Q 2709 3584 3137 3096 
Q 3566 2609 3566 1747 
Q 3566 888 3137 398 
Q 2709 -91 1959 -91 
Q 1206 -91 779 398 
Q 353 888 353 1747 
Q 353 2609 779 3096 
Q 1206 3584 1959 3584 
z
" transform="scale(0.015625)"/>
        <path id="DejaVuSans-6d" d="M 3328 2828 
Q 3544 3216 3844 3400 
Q 4144 3584 4550 3584 
Q 5097 3584 5394 3201 
Q 5691 2819 5691 2113 
L 5691 0 
L 5113 0 
L 5113 2094 
Q 5113 2597 4934 2840 
Q 4756 3084 4391 3084 
Q 3944 3084 3684 2787 
Q 3425 2491 3425 1978 
L 3425 0 
L 2847 0 
L 2847 2094 
Q 2847 2600 2669 2842 
Q 2491 3084 2119 3084 
Q 1678 3084 1418 2786 
Q 1159 2488 1159 1978 
L 1159 0 
L 581 0 
L 581 3500 
L 1159 3500 
L 1159 2956 
Q 1356 3278 1631 3431 
Q 1906 3584 2284 3584 
Q 2666 3584 2933 3390 
Q 3200 3197 3328 2828 
z
" transform="scale(0.015625)"/>
        <path id="DejaVuSans-61" d="M 2194 1759 
Q 1497 1759 1228 1600 
Q 959 1441 959 1056 
Q 959 750 1161 570 
Q 1363 391 1709 391 
Q 2188 391 2477 730 
Q 2766 1069 2766 1631 
L 2766 1759 
L 2194 1759 
z
M 3341 1997 
L 3341 0 
L 2766 0 
L 2766 531 
Q 2569 213 2275 61 
Q 1981 -91 1556 -91 
Q 1019 -91 701 211 
Q 384 513 384 1019 
Q 384 1609 779 1909 
Q 1175 2209 1959 2209 
L 2766 2209 
L 2766 2266 
Q 2766 2663 2505 2880 
Q 2244 3097 1772 3097 
Q 1472 3097 1187 3025 
Q 903 2953 641 2809 
L 641 3341 
Q 956 3463 1253 3523 
Q 1550 3584 1831 3584 
Q 2591 3584 2966 3190 
Q 3341 2797 3341 1997 
z
" transform="scale(0.015625)"/>
        <path id="DejaVuSans-6e" d="M 3513 2113 
L 3513 0 
L 2938 0 
L 2938 2094 
Q 2938 2591 2744 2837 
Q 2550 3084 2163 3084 
Q 1697 3084 1428 2787 
Q 1159 2491 1159 1978 
L 1159 0 
L 581 0 
L 581 3500 
L 1159 3500 
L 1159 2956 
Q 1366 3272 1645 3428 
Q 1925 3584 2291 3584 
Q 2894 3584 3203 3211 
Q 3513 2838 3513 2113 
z
" transform="scale(0.015625)"/>
        <path id="DejaVuSans-63" d="M 3122 3366 
L 3122 2828 
Q 2878 2963 2633 3030 
Q 2388 3097 2138 3097 
Q 1578 3097 1268 2742 
Q 959 2388 959 1747 
Q 959 1106 1268 751 
Q 1578 397 2138 397 
Q 2388 397 2633 464 
Q 2878 531 3122 666 
L 3122 134 
Q 2881 22 2623 -34 
Q 2366 -91 2075 -91 
Q 1284 -91 818 406 
Q 353 903 353 1747 
Q 353 2603 823 3093 
Q 1294 3584 2113 3584 
Q 2378 3584 2631 3529 
Q 2884 3475 3122 3366 
z
" transform="scale(0.015625)"/>
       </defs>
       <use xlink:href="#DejaVuSans-70"/>
       <use xlink:href="#DejaVuSans-65" transform="translate(63.476562 0)"/>
       <use xlink:href="#DejaVuSans-72" transform="translate(125 0)"/>
       <use xlink:href="#DejaVuSans-66" transform="translate(166.113281 0)"/>
       <use xlink:href="#DejaVuSans-6f" transform="translate(201.318359 0)"/>
       <use xlink:href="#DejaVuSans-72" transform="translate(262.5 0)"/>
       <use xlink:href="#DejaVuSans-6d" transform="translate(301.863281 0)"/>
       <use xlink:href="#DejaVuSans-61" transform="translate(399.275391 0)"/>
       <use xlink:href="#DejaVuSans-6e" transform="translate(460.554688 0)"/>
       <use xlink:href="#DejaVuSans-63" transform="translate(523.933594 0)"/>
       <use xlink:href="#DejaVuSans-65" transform="translate(578.914062 0)"/>
      </g>
     </g>
    </g>
    <g id="xtick_2">
     <g id="line2d_2">
      <g>
       <use xlink:href="#m50e11fd607" x="232.460911" y="332.782125" style="stroke: #000000; stroke-width: 0.8"/>
      </g>
     </g>
     <g id="text_2">
      <!-- HRDataset -->
      <g transform="translate(205.646849 347.380562) scale(0.1 -0.1)">
       <defs>
        <path id="DejaVuSans-48" d="M 628 4666 
L 1259 4666 
L 1259 2753 
L 3553 2753 
L 3553 4666 
L 4184 4666 
L 4184 0 
L 3553 0 
L 3553 2222 
L 1259 2222 
L 1259 0 
L 628 0 
L 628 4666 
z
" transform="scale(0.015625)"/>
        <path id="DejaVuSans-52" d="M 2841 2188 
Q 3044 2119 3236 1894 
Q 3428 1669 3622 1275 
L 4263 0 
L 3584 0 
L 2988 1197 
Q 2756 1666 2539 1819 
Q 2322 1972 1947 1972 
L 1259 1972 
L 1259 0 
L 628 0 
L 628 4666 
L 2053 4666 
Q 2853 4666 3247 4331 
Q 3641 3997 3641 3322 
Q 3641 2881 3436 2590 
Q 3231 2300 2841 2188 
z
M 1259 4147 
L 1259 2491 
L 2053 2491 
Q 2509 2491 2742 2702 
Q 2975 2913 2975 3322 
Q 2975 3731 2742 3939 
Q 2509 4147 2053 4147 
L 1259 4147 
z
" transform="scale(0.015625)"/>
        <path id="DejaVuSans-44" d="M 1259 4147 
L 1259 519 
L 2022 519 
Q 2988 519 3436 956 
Q 3884 1394 3884 2338 
Q 3884 3275 3436 3711 
Q 2988 4147 2022 4147 
L 1259 4147 
z
M 628 4666 
L 1925 4666 
Q 3281 4666 3915 4102 
Q 4550 3538 4550 2338 
Q 4550 1131 3912 565 
Q 3275 0 1925 0 
L 628 0 
L 628 4666 
z
" transform="scale(0.015625)"/>
        <path id="DejaVuSans-74" d="M 1172 4494 
L 1172 3500 
L 2356 3500 
L 2356 3053 
L 1172 3053 
L 1172 1153 
Q 1172 725 1289 603 
Q 1406 481 1766 481 
L 2356 481 
L 2356 0 
L 1766 0 
Q 1100 0 847 248 
Q 594 497 594 1153 
L 594 3053 
L 172 3053 
L 172 3500 
L 594 3500 
L 594 4494 
L 1172 4494 
z
" transform="scale(0.015625)"/>
        <path id="DejaVuSans-73" d="M 2834 3397 
L 2834 2853 
Q 2591 2978 2328 3040 
Q 2066 3103 1784 3103 
Q 1356 3103 1142 2972 
Q 928 2841 928 2578 
Q 928 2378 1081 2264 
Q 1234 2150 1697 2047 
L 1894 2003 
Q 2506 1872 2764 1633 
Q 3022 1394 3022 966 
Q 3022 478 2636 193 
Q 2250 -91 1575 -91 
Q 1294 -91 989 -36 
Q 684 19 347 128 
L 347 722 
Q 666 556 975 473 
Q 1284 391 1588 391 
Q 1994 391 2212 530 
Q 2431 669 2431 922 
Q 2431 1156 2273 1281 
Q 2116 1406 1581 1522 
L 1381 1569 
Q 847 1681 609 1914 
Q 372 2147 372 2553 
Q 372 3047 722 3315 
Q 1072 3584 1716 3584 
Q 2034 3584 2315 3537 
Q 2597 3491 2834 3397 
z
" transform="scale(0.015625)"/>
       </defs>
       <use xlink:href="#DejaVuSans-48"/>
       <use xlink:href="#DejaVuSans-52" transform="translate(75.195312 0)"/>
       <use xlink:href="#DejaVuSans-44" transform="translate(144.677734 0)"/>
       <use xlink:href="#DejaVuSans-61" transform="translate(221.679688 0)"/>
       <use xlink:href="#DejaVuSans-74" transform="translate(282.958984 0)"/>
       <use xlink:href="#DejaVuSans-61" transform="translate(322.167969 0)"/>
       <use xlink:href="#DejaVuSans-73" transform="translate(383.447266 0)"/>
       <use xlink:href="#DejaVuSans-65" transform="translate(435.546875 0)"/>
       <use xlink:href="#DejaVuSans-74" transform="translate(497.070312 0)"/>
      </g>
      <!-- performance -->
      <g transform="translate(200.438255 358.578375) scale(0.1 -0.1)">
       <use xlink:href="#DejaVuSans-70"/>
       <use xlink:href="#DejaVuSans-65" transform="translate(63.476562 0)"/>
       <use xlink:href="#DejaVuSans-72" transform="translate(125 0)"/>
       <use xlink:href="#DejaVuSans-66" transform="translate(166.113281 0)"/>
       <use xlink:href="#DejaVuSans-6f" transform="translate(201.318359 0)"/>
       <use xlink:href="#DejaVuSans-72" transform="translate(262.5 0)"/>
       <use xlink:href="#DejaVuSans-6d" transform="translate(301.863281 0)"/>
       <use xlink:href="#DejaVuSans-61" transform="translate(399.275391 0)"/>
       <use xlink:href="#DejaVuSans-6e" transform="translate(460.554688 0)"/>
       <use xlink:href="#DejaVuSans-63" transform="translate(523.933594 0)"/>
       <use xlink:href="#DejaVuSans-65" transform="translate(578.914062 0)"/>
      </g>
     </g>
    </g>
    <g id="xtick_3">
     <g id="line2d_3">
      <g>
       <use xlink:href="#m50e11fd607" x="350.68125" y="332.782125" style="stroke: #000000; stroke-width: 0.8"/>
      </g>
     </g>
     <g id="text_3">
      <!-- IBM -->
      <g transform="translate(341.461719 347.380562) scale(0.1 -0.1)">
       <defs>
        <path id="DejaVuSans-42" d="M 1259 2228 
L 1259 519 
L 2272 519 
Q 2781 519 3026 730 
Q 3272 941 3272 1375 
Q 3272 1813 3026 2020 
Q 2781 2228 2272 2228 
L 1259 2228 
z
M 1259 4147 
L 1259 2741 
L 2194 2741 
Q 2656 2741 2882 2914 
Q 3109 3088 3109 3444 
Q 3109 3797 2882 3972 
Q 2656 4147 2194 4147 
L 1259 4147 
z
M 628 4666 
L 2241 4666 
Q 2963 4666 3353 4366 
Q 3744 4066 3744 3513 
Q 3744 3084 3544 2831 
Q 3344 2578 2956 2516 
Q 3422 2416 3680 2098 
Q 3938 1781 3938 1306 
Q 3938 681 3513 340 
Q 3088 0 2303 0 
L 628 0 
L 628 4666 
z
" transform="scale(0.015625)"/>
        <path id="DejaVuSans-4d" d="M 628 4666 
L 1569 4666 
L 2759 1491 
L 3956 4666 
L 4897 4666 
L 4897 0 
L 4281 0 
L 4281 4097 
L 3078 897 
L 2444 897 
L 1241 4097 
L 1241 0 
L 628 0 
L 628 4666 
z
" transform="scale(0.015625)"/>
       </defs>
       <use xlink:href="#DejaVuSans-49"/>
       <use xlink:href="#DejaVuSans-42" transform="translate(29.492188 0)"/>
       <use xlink:href="#DejaVuSans-4d" transform="translate(98.095703 0)"/>
      </g>
      <!-- restricted -->
      <g transform="translate(326.692188 358.578375) scale(0.1 -0.1)">
       <defs>
        <path id="DejaVuSans-69" d="M 603 3500 
L 1178 3500 
L 1178 0 
L 603 0 
L 603 3500 
z
M 603 4863 
L 1178 4863 
L 1178 4134 
L 603 4134 
L 603 4863 
z
" transform="scale(0.015625)"/>
        <path id="DejaVuSans-64" d="M 2906 2969 
L 2906 4863 
L 3481 4863 
L 3481 0 
L 2906 0 
L 2906 525 
Q 2725 213 2448 61 
Q 2172 -91 1784 -91 
Q 1150 -91 751 415 
Q 353 922 353 1747 
Q 353 2572 751 3078 
Q 1150 3584 1784 3584 
Q 2172 3584 2448 3432 
Q 2725 3281 2906 2969 
z
M 947 1747 
Q 947 1113 1208 752 
Q 1469 391 1925 391 
Q 2381 391 2643 752 
Q 2906 1113 2906 1747 
Q 2906 2381 2643 2742 
Q 2381 3103 1925 3103 
Q 1469 3103 1208 2742 
Q 947 2381 947 1747 
z
" transform="scale(0.015625)"/>
       </defs>
       <use xlink:href="#DejaVuSans-72"/>
       <use xlink:href="#DejaVuSans-65" transform="translate(38.863281 0)"/>
       <use xlink:href="#DejaVuSans-73" transform="translate(100.386719 0)"/>
       <use xlink:href="#DejaVuSans-74" transform="translate(152.486328 0)"/>
       <use xlink:href="#DejaVuSans-72" transform="translate(191.695312 0)"/>
       <use xlink:href="#DejaVuSans-69" transform="translate(232.808594 0)"/>
       <use xlink:href="#DejaVuSans-63" transform="translate(260.591797 0)"/>
       <use xlink:href="#DejaVuSans-74" transform="translate(315.572266 0)"/>
       <use xlink:href="#DejaVuSans-65" transform="translate(354.78125 0)"/>
       <use xlink:href="#DejaVuSans-64" transform="translate(416.304688 0)"/>
      </g>
     </g>
    </g>
    <g id="xtick_4">
     <g id="line2d_4">
      <g>
       <use xlink:href="#m50e11fd607" x="468.901589" y="332.782125" style="stroke: #000000; stroke-width: 0.8"/>
      </g>
     </g>
     <g id="text_4">
      <!-- IBM -->
      <g transform="translate(459.682058 347.380562) scale(0.1 -0.1)">
       <use xlink:href="#DejaVuSans-49"/>
       <use xlink:href="#DejaVuSans-42" transform="translate(29.492188 0)"/>
       <use xlink:href="#DejaVuSans-4d" transform="translate(98.095703 0)"/>
      </g>
      <!-- attrition -->
      <g transform="translate(448.895339 358.578375) scale(0.1 -0.1)">
       <use xlink:href="#DejaVuSans-61"/>
       <use xlink:href="#DejaVuSans-74" transform="translate(61.279297 0)"/>
       <use xlink:href="#DejaVuSans-74" transform="translate(100.488281 0)"/>
       <use xlink:href="#DejaVuSans-72" transform="translate(139.697266 0)"/>
       <use xlink:href="#DejaVuSans-69" transform="translate(180.810547 0)"/>
       <use xlink:href="#DejaVuSans-74" transform="translate(208.59375 0)"/>
       <use xlink:href="#DejaVuSans-69" transform="translate(247.802734 0)"/>
       <use xlink:href="#DejaVuSans-6f" transform="translate(275.585938 0)"/>
       <use xlink:href="#DejaVuSans-6e" transform="translate(336.767578 0)"/>
      </g>
     </g>
    </g>
    <g id="xtick_5">
     <g id="line2d_5">
      <g>
       <use xlink:href="#m50e11fd607" x="587.121928" y="332.782125" style="stroke: #000000; stroke-width: 0.8"/>
      </g>
     </g>
     <g id="text_5">
      <!-- Turnover -->
      <g transform="translate(565.368022 347.380562) scale(0.1 -0.1)">
       <defs>
        <path id="DejaVuSans-54" d="M -19 4666 
L 3928 4666 
L 3928 4134 
L 2272 4134 
L 2272 0 
L 1638 0 
L 1638 4134 
L -19 4134 
L -19 4666 
z
" transform="scale(0.015625)"/>
        <path id="DejaVuSans-75" d="M 544 1381 
L 544 3500 
L 1119 3500 
L 1119 1403 
Q 1119 906 1312 657 
Q 1506 409 1894 409 
Q 2359 409 2629 706 
Q 2900 1003 2900 1516 
L 2900 3500 
L 3475 3500 
L 3475 0 
L 2900 0 
L 2900 538 
Q 2691 219 2414 64 
Q 2138 -91 1772 -91 
Q 1169 -91 856 284 
Q 544 659 544 1381 
z
M 1991 3584 
L 1991 3584 
z
" transform="scale(0.015625)"/>
        <path id="DejaVuSans-76" d="M 191 3500 
L 800 3500 
L 1894 563 
L 2988 3500 
L 3597 3500 
L 2284 0 
L 1503 0 
L 191 3500 
z
" transform="scale(0.015625)"/>
       </defs>
       <use xlink:href="#DejaVuSans-54"/>
       <use xlink:href="#DejaVuSans-75" transform="translate(45.958984 0)"/>
       <use xlink:href="#DejaVuSans-72" transform="translate(109.337891 0)"/>
       <use xlink:href="#DejaVuSans-6e" transform="translate(148.701172 0)"/>
       <use xlink:href="#DejaVuSans-6f" transform="translate(212.080078 0)"/>
       <use xlink:href="#DejaVuSans-76" transform="translate(273.261719 0)"/>
       <use xlink:href="#DejaVuSans-65" transform="translate(332.441406 0)"/>
       <use xlink:href="#DejaVuSans-72" transform="translate(393.964844 0)"/>
      </g>
      <!-- transfer -->
      <g transform="translate(567.376615 358.578375) scale(0.1 -0.1)">
       <use xlink:href="#DejaVuSans-74"/>
       <use xlink:href="#DejaVuSans-72" transform="translate(39.208984 0)"/>
       <use xlink:href="#DejaVuSans-61" transform="translate(80.322266 0)"/>
       <use xlink:href="#DejaVuSans-6e" transform="translate(141.601562 0)"/>
       <use xlink:href="#DejaVuSans-73" transform="translate(204.980469 0)"/>
       <use xlink:href="#DejaVuSans-66" transform="translate(257.080078 0)"/>
       <use xlink:href="#DejaVuSans-65" transform="translate(292.285156 0)"/>
       <use xlink:href="#DejaVuSans-72" transform="translate(353.808594 0)"/>
      </g>
     </g>
    </g>
   </g>
   <g id="matplotlib.axis_2">
    <g id="ytick_1">
     <g id="line2d_6">
      <defs>
       <path id="m2e70986bc1" d="M 0 0 
L -3.5 0 
" style="stroke: #000000; stroke-width: 0.8"/>
      </defs>
      <g>
       <use xlink:href="#m2e70986bc1" x="43.78125" y="300.939663" style="stroke: #000000; stroke-width: 0.8"/>
      </g>
     </g>
     <g id="text_6">
      <!-- 0.0 -->
      <g transform="translate(20.878125 304.738882) scale(0.1 -0.1)">
       <defs>
        <path id="DejaVuSans-30" d="M 2034 4250 
Q 1547 4250 1301 3770 
Q 1056 3291 1056 2328 
Q 1056 1369 1301 889 
Q 1547 409 2034 409 
Q 2525 409 2770 889 
Q 3016 1369 3016 2328 
Q 3016 3291 2770 3770 
Q 2525 4250 2034 4250 
z
M 2034 4750 
Q 2819 4750 3233 4129 
Q 3647 3509 3647 2328 
Q 3647 1150 3233 529 
Q 2819 -91 2034 -91 
Q 1250 -91 836 529 
Q 422 1150 422 2328 
Q 422 3509 836 4129 
Q 1250 4750 2034 4750 
z
" transform="scale(0.015625)"/>
        <path id="DejaVuSans-2e" d="M 684 794 
L 1344 794 
L 1344 0 
L 684 0 
L 684 794 
z
" transform="scale(0.015625)"/>
       </defs>
       <use xlink:href="#DejaVuSans-30"/>
       <use xlink:href="#DejaVuSans-2e" transform="translate(63.623047 0)"/>
       <use xlink:href="#DejaVuSans-30" transform="translate(95.410156 0)"/>
      </g>
     </g>
    </g>
    <g id="ytick_2">
     <g id="line2d_7">
      <g>
       <use xlink:href="#m2e70986bc1" x="43.78125" y="247.868894" style="stroke: #000000; stroke-width: 0.8"/>
      </g>
     </g>
     <g id="text_7">
      <!-- 0.2 -->
      <g transform="translate(20.878125 251.668113) scale(0.1 -0.1)">
       <defs>
        <path id="DejaVuSans-32" d="M 1228 531 
L 3431 531 
L 3431 0 
L 469 0 
L 469 531 
Q 828 903 1448 1529 
Q 2069 2156 2228 2338 
Q 2531 2678 2651 2914 
Q 2772 3150 2772 3378 
Q 2772 3750 2511 3984 
Q 2250 4219 1831 4219 
Q 1534 4219 1204 4116 
Q 875 4013 500 3803 
L 500 4441 
Q 881 4594 1212 4672 
Q 1544 4750 1819 4750 
Q 2544 4750 2975 4387 
Q 3406 4025 3406 3419 
Q 3406 3131 3298 2873 
Q 3191 2616 2906 2266 
Q 2828 2175 2409 1742 
Q 1991 1309 1228 531 
z
" transform="scale(0.015625)"/>
       </defs>
       <use xlink:href="#DejaVuSans-30"/>
       <use xlink:href="#DejaVuSans-2e" transform="translate(63.623047 0)"/>
       <use xlink:href="#DejaVuSans-32" transform="translate(95.410156 0)"/>
      </g>
     </g>
    </g>
    <g id="ytick_3">
     <g id="line2d_8">
      <g>
       <use xlink:href="#m2e70986bc1" x="43.78125" y="194.798125" style="stroke: #000000; stroke-width: 0.8"/>
      </g>
     </g>
     <g id="text_8">
      <!-- 0.4 -->
      <g transform="translate(20.878125 198.597344) scale(0.1 -0.1)">
       <defs>
        <path id="DejaVuSans-34" d="M 2419 4116 
L 825 1625 
L 2419 1625 
L 2419 4116 
z
M 2253 4666 
L 3047 4666 
L 3047 1625 
L 3713 1625 
L 3713 1100 
L 3047 1100 
L 3047 0 
L 2419 0 
L 2419 1100 
L 313 1100 
L 313 1709 
L 2253 4666 
z
" transform="scale(0.015625)"/>
       </defs>
       <use xlink:href="#DejaVuSans-30"/>
       <use xlink:href="#DejaVuSans-2e" transform="translate(63.623047 0)"/>
       <use xlink:href="#DejaVuSans-34" transform="translate(95.410156 0)"/>
      </g>
     </g>
    </g>
    <g id="ytick_4">
     <g id="line2d_9">
      <g>
       <use xlink:href="#m2e70986bc1" x="43.78125" y="141.727356" style="stroke: #000000; stroke-width: 0.8"/>
      </g>
     </g>
     <g id="text_9">
      <!-- 0.6 -->
      <g transform="translate(20.878125 145.526575) scale(0.1 -0.1)">
       <defs>
        <path id="DejaVuSans-36" d="M 2113 2584 
Q 1688 2584 1439 2293 
Q 1191 2003 1191 1497 
Q 1191 994 1439 701 
Q 1688 409 2113 409 
Q 2538 409 2786 701 
Q 3034 994 3034 1497 
Q 3034 2003 2786 2293 
Q 2538 2584 2113 2584 
z
M 3366 4563 
L 3366 3988 
Q 3128 4100 2886 4159 
Q 2644 4219 2406 4219 
Q 1781 4219 1451 3797 
Q 1122 3375 1075 2522 
Q 1259 2794 1537 2939 
Q 1816 3084 2150 3084 
Q 2853 3084 3261 2657 
Q 3669 2231 3669 1497 
Q 3669 778 3244 343 
Q 2819 -91 2113 -91 
Q 1303 -91 875 529 
Q 447 1150 447 2328 
Q 447 3434 972 4092 
Q 1497 4750 2381 4750 
Q 2619 4750 2861 4703 
Q 3103 4656 3366 4563 
z
" transform="scale(0.015625)"/>
       </defs>
       <use xlink:href="#DejaVuSans-30"/>
       <use xlink:href="#DejaVuSans-2e" transform="translate(63.623047 0)"/>
       <use xlink:href="#DejaVuSans-36" transform="translate(95.410156 0)"/>
      </g>
     </g>
    </g>
    <g id="ytick_5">
     <g id="line2d_10">
      <g>
       <use xlink:href="#m2e70986bc1" x="43.78125" y="88.656587" style="stroke: #000000; stroke-width: 0.8"/>
      </g>
     </g>
     <g id="text_10">
      <!-- 0.8 -->
      <g transform="translate(20.878125 92.455805) scale(0.1 -0.1)">
       <defs>
        <path id="DejaVuSans-38" d="M 2034 2216 
Q 1584 2216 1326 1975 
Q 1069 1734 1069 1313 
Q 1069 891 1326 650 
Q 1584 409 2034 409 
Q 2484 409 2743 651 
Q 3003 894 3003 1313 
Q 3003 1734 2745 1975 
Q 2488 2216 2034 2216 
z
M 1403 2484 
Q 997 2584 770 2862 
Q 544 3141 544 3541 
Q 544 4100 942 4425 
Q 1341 4750 2034 4750 
Q 2731 4750 3128 4425 
Q 3525 4100 3525 3541 
Q 3525 3141 3298 2862 
Q 3072 2584 2669 2484 
Q 3125 2378 3379 2068 
Q 3634 1759 3634 1313 
Q 3634 634 3220 271 
Q 2806 -91 2034 -91 
Q 1263 -91 848 271 
Q 434 634 434 1313 
Q 434 1759 690 2068 
Q 947 2378 1403 2484 
z
M 1172 3481 
Q 1172 3119 1398 2916 
Q 1625 2713 2034 2713 
Q 2441 2713 2670 2916 
Q 2900 3119 2900 3481 
Q 2900 3844 2670 4047 
Q 2441 4250 2034 4250 
Q 1625 4250 1398 4047 
Q 1172 3844 1172 3481 
z
" transform="scale(0.015625)"/>
       </defs>
       <use xlink:href="#DejaVuSans-30"/>
       <use xlink:href="#DejaVuSans-2e" transform="translate(63.623047 0)"/>
       <use xlink:href="#DejaVuSans-38" transform="translate(95.410156 0)"/>
      </g>
     </g>
    </g>
    <g id="ytick_6">
     <g id="line2d_11">
      <g>
       <use xlink:href="#m2e70986bc1" x="43.78125" y="35.585817" style="stroke: #000000; stroke-width: 0.8"/>
      </g>
     </g>
     <g id="text_11">
      <!-- 1.0 -->
      <g transform="translate(20.878125 39.385036) scale(0.1 -0.1)">
       <defs>
        <path id="DejaVuSans-31" d="M 794 531 
L 1825 531 
L 1825 4091 
L 703 3866 
L 703 4441 
L 1819 4666 
L 2450 4666 
L 2450 531 
L 3481 531 
L 3481 0 
L 794 0 
L 794 531 
z
" transform="scale(0.015625)"/>
       </defs>
       <use xlink:href="#DejaVuSans-31"/>
       <use xlink:href="#DejaVuSans-2e" transform="translate(63.623047 0)"/>
       <use xlink:href="#DejaVuSans-30" transform="translate(95.410156 0)"/>
      </g>
     </g>
    </g>
    <g id="text_12">
     <!-- Metric value -->
     <g transform="translate(14.798438 208.341531) rotate(-90) scale(0.1 -0.1)">
      <defs>
       <path id="DejaVuSans-20" transform="scale(0.015625)"/>
       <path id="DejaVuSans-6c" d="M 603 4863 
L 1178 4863 
L 1178 0 
L 603 0 
L 603 4863 
z
" transform="scale(0.015625)"/>
      </defs>
      <use xlink:href="#DejaVuSans-4d"/>
      <use xlink:href="#DejaVuSans-65" transform="translate(86.279297 0)"/>
      <use xlink:href="#DejaVuSans-74" transform="translate(147.802734 0)"/>
      <use xlink:href="#DejaVuSans-72" transform="translate(187.011719 0)"/>
      <use xlink:href="#DejaVuSans-69" transform="translate(228.125 0)"/>
      <use xlink:href="#DejaVuSans-63" transform="translate(255.908203 0)"/>
      <use xlink:href="#DejaVuSans-20" transform="translate(310.888672 0)"/>
      <use xlink:href="#DejaVuSans-76" transform="translate(342.675781 0)"/>
      <use xlink:href="#DejaVuSans-61" transform="translate(401.855469 0)"/>
      <use xlink:href="#DejaVuSans-6c" transform="translate(463.134766 0)"/>
      <use xlink:href="#DejaVuSans-75" transform="translate(490.917969 0)"/>
      <use xlink:href="#DejaVuSans-65" transform="translate(554.296875 0)"/>
     </g>
    </g>
   </g>
   <g id="line2d_12">
    <path d="M 43.78125 300.939663 
L 657.58125 300.939663 
" clip-path="url(#p62bf260879)" style="fill: none; stroke: #000000; stroke-width: 0.8; stroke-linecap: square"/>
   </g>
   <g id="patch_13">
    <path d="M 43.78125 332.782125 
L 43.78125 22.318125 
" style="fill: none; stroke: #000000; stroke-width: 0.8; stroke-linejoin: miter; stroke-linecap: square"/>
   </g>
   <g id="patch_14">
    <path d="M 657.58125 332.782125 
L 657.58125 22.318125 
" style="fill: none; stroke: #000000; stroke-width: 0.8; stroke-linejoin: miter; stroke-linecap: square"/>
   </g>
   <g id="patch_15">
    <path d="M 43.78125 332.782125 
L 657.58125 332.782125 
" style="fill: none; stroke: #000000; stroke-width: 0.8; stroke-linejoin: miter; stroke-linecap: square"/>
   </g>
   <g id="patch_16">
    <path d="M 43.78125 22.318125 
L 657.58125 22.318125 
" style="fill: none; stroke: #000000; stroke-width: 0.8; stroke-linejoin: miter; stroke-linecap: square"/>
   </g>
   <g id="text_13">
    <!-- IBM attrition and Employee Turnover are related-task transfer evidence, not direct performance validation. -->
    <g style="fill: #b84a4a" transform="translate(56.05725 391.770285) scale(0.09 -0.09)">
     <defs>
      <path id="DejaVuSans-45" d="M 628 4666 
L 3578 4666 
L 3578 4134 
L 1259 4134 
L 1259 2753 
L 3481 2753 
L 3481 2222 
L 1259 2222 
L 1259 531 
L 3634 531 
L 3634 0 
L 628 0 
L 628 4666 
z
" transform="scale(0.015625)"/>
      <path id="DejaVuSans-79" d="M 2059 -325 
Q 1816 -950 1584 -1140 
Q 1353 -1331 966 -1331 
L 506 -1331 
L 506 -850 
L 844 -850 
Q 1081 -850 1212 -737 
Q 1344 -625 1503 -206 
L 1606 56 
L 191 3500 
L 800 3500 
L 1894 763 
L 2988 3500 
L 3597 3500 
L 2059 -325 
z
" transform="scale(0.015625)"/>
      <path id="DejaVuSans-2d" d="M 313 2009 
L 1997 2009 
L 1997 1497 
L 313 1497 
L 313 2009 
z
" transform="scale(0.015625)"/>
      <path id="DejaVuSans-6b" d="M 581 4863 
L 1159 4863 
L 1159 1991 
L 2875 3500 
L 3609 3500 
L 1753 1863 
L 3688 0 
L 2938 0 
L 1159 1709 
L 1159 0 
L 581 0 
L 581 4863 
z
" transform="scale(0.015625)"/>
      <path id="DejaVuSans-2c" d="M 750 794 
L 1409 794 
L 1409 256 
L 897 -744 
L 494 -744 
L 750 256 
L 750 794 
z
" transform="scale(0.015625)"/>
     </defs>
     <use xlink:href="#DejaVuSans-49"/>
     <use xlink:href="#DejaVuSans-42" transform="translate(29.492188 0)"/>
     <use xlink:href="#DejaVuSans-4d" transform="translate(98.095703 0)"/>
     <use xlink:href="#DejaVuSans-20" transform="translate(184.375 0)"/>
     <use xlink:href="#DejaVuSans-61" transform="translate(216.162109 0)"/>
     <use xlink:href="#DejaVuSans-74" transform="translate(277.441406 0)"/>
     <use xlink:href="#DejaVuSans-74" transform="translate(316.650391 0)"/>
     <use xlink:href="#DejaVuSans-72" transform="translate(355.859375 0)"/>
     <use xlink:href="#DejaVuSans-69" transform="translate(396.972656 0)"/>
     <use xlink:href="#DejaVuSans-74" transform="translate(424.755859 0)"/>
     <use xlink:href="#DejaVuSans-69" transform="translate(463.964844 0)"/>
     <use xlink:href="#DejaVuSans-6f" transform="translate(491.748047 0)"/>
     <use xlink:href="#DejaVuSans-6e" transform="translate(552.929688 0)"/>
     <use xlink:href="#DejaVuSans-20" transform="translate(616.308594 0)"/>
     <use xlink:href="#DejaVuSans-61" transform="translate(648.095703 0)"/>
     <use xlink:href="#DejaVuSans-6e" transform="translate(709.375 0)"/>
     <use xlink:href="#DejaVuSans-64" transform="translate(772.753906 0)"/>
     <use xlink:href="#DejaVuSans-20" transform="translate(836.230469 0)"/>
     <use xlink:href="#DejaVuSans-45" transform="translate(868.017578 0)"/>
     <use xlink:href="#DejaVuSans-6d" transform="translate(931.201172 0)"/>
     <use xlink:href="#DejaVuSans-70" transform="translate(1028.613281 0)"/>
     <use xlink:href="#DejaVuSans-6c" transform="translate(1092.089844 0)"/>
     <use xlink:href="#DejaVuSans-6f" transform="translate(1119.873047 0)"/>
     <use xlink:href="#DejaVuSans-79" transform="translate(1181.054688 0)"/>
     <use xlink:href="#DejaVuSans-65" transform="translate(1240.234375 0)"/>
     <use xlink:href="#DejaVuSans-65" transform="translate(1301.757812 0)"/>
     <use xlink:href="#DejaVuSans-20" transform="translate(1363.28125 0)"/>
     <use xlink:href="#DejaVuSans-54" transform="translate(1395.068359 0)"/>
     <use xlink:href="#DejaVuSans-75" transform="translate(1441.027344 0)"/>
     <use xlink:href="#DejaVuSans-72" transform="translate(1504.40625 0)"/>
     <use xlink:href="#DejaVuSans-6e" transform="translate(1543.769531 0)"/>
     <use xlink:href="#DejaVuSans-6f" transform="translate(1607.148438 0)"/>
     <use xlink:href="#DejaVuSans-76" transform="translate(1668.330078 0)"/>
     <use xlink:href="#DejaVuSans-65" transform="translate(1727.509766 0)"/>
     <use xlink:href="#DejaVuSans-72" transform="translate(1789.033203 0)"/>
     <use xlink:href="#DejaVuSans-20" transform="translate(1830.146484 0)"/>
     <use xlink:href="#DejaVuSans-61" transform="translate(1861.933594 0)"/>
     <use xlink:href="#DejaVuSans-72" transform="translate(1923.212891 0)"/>
     <use xlink:href="#DejaVuSans-65" transform="translate(1962.076172 0)"/>
     <use xlink:href="#DejaVuSans-20" transform="translate(2023.599609 0)"/>
     <use xlink:href="#DejaVuSans-72" transform="translate(2055.386719 0)"/>
     <use xlink:href="#DejaVuSans-65" transform="translate(2094.25 0)"/>
     <use xlink:href="#DejaVuSans-6c" transform="translate(2155.773438 0)"/>
     <use xlink:href="#DejaVuSans-61" transform="translate(2183.556641 0)"/>
     <use xlink:href="#DejaVuSans-74" transform="translate(2244.835938 0)"/>
     <use xlink:href="#DejaVuSans-65" transform="translate(2284.044922 0)"/>
     <use xlink:href="#DejaVuSans-64" transform="translate(2345.568359 0)"/>
     <use xlink:href="#DejaVuSans-2d" transform="translate(2409.044922 0)"/>
     <use xlink:href="#DejaVuSans-74" transform="translate(2445.128906 0)"/>
     <use xlink:href="#DejaVuSans-61" transform="translate(2484.337891 0)"/>
     <use xlink:href="#DejaVuSans-73" transform="translate(2545.617188 0)"/>
     <use xlink:href="#DejaVuSans-6b" transform="translate(2597.716797 0)"/>
     <use xlink:href="#DejaVuSans-20" transform="translate(2655.626953 0)"/>
     <use xlink:href="#DejaVuSans-74" transform="translate(2687.414062 0)"/>
     <use xlink:href="#DejaVuSans-72" transform="translate(2726.623047 0)"/>
     <use xlink:href="#DejaVuSans-61" transform="translate(2767.736328 0)"/>
     <use xlink:href="#DejaVuSans-6e" transform="translate(2829.015625 0)"/>
     <use xlink:href="#DejaVuSans-73" transform="translate(2892.394531 0)"/>
     <use xlink:href="#DejaVuSans-66" transform="translate(2944.494141 0)"/>
     <use xlink:href="#DejaVuSans-65" transform="translate(2979.699219 0)"/>
     <use xlink:href="#DejaVuSans-72" transform="translate(3041.222656 0)"/>
     <use xlink:href="#DejaVuSans-20" transform="translate(3082.335938 0)"/>
     <use xlink:href="#DejaVuSans-65" transform="translate(3114.123047 0)"/>
     <use xlink:href="#DejaVuSans-76" transform="translate(3175.646484 0)"/>
     <use xlink:href="#DejaVuSans-69" transform="translate(3234.826172 0)"/>
     <use xlink:href="#DejaVuSans-64" transform="translate(3262.609375 0)"/>
     <use xlink:href="#DejaVuSans-65" transform="translate(3326.085938 0)"/>
     <use xlink:href="#DejaVuSans-6e" transform="translate(3387.609375 0)"/>
     <use xlink:href="#DejaVuSans-63" transform="translate(3450.988281 0)"/>
     <use xlink:href="#DejaVuSans-65" transform="translate(3505.96875 0)"/>
     <use xlink:href="#DejaVuSans-2c" transform="translate(3567.492188 0)"/>
     <use xlink:href="#DejaVuSans-20" transform="translate(3599.279297 0)"/>
     <use xlink:href="#DejaVuSans-6e" transform="translate(3631.066406 0)"/>
     <use xlink:href="#DejaVuSans-6f" transform="translate(3694.445312 0)"/>
     <use xlink:href="#DejaVuSans-74" transform="translate(3755.626953 0)"/>
     <use xlink:href="#DejaVuSans-20" transform="translate(3794.835938 0)"/>
     <use xlink:href="#DejaVuSans-64" transform="translate(3826.623047 0)"/>
     <use xlink:href="#DejaVuSans-69" transform="translate(3890.099609 0)"/>
     <use xlink:href="#DejaVuSans-72" transform="translate(3917.882812 0)"/>
     <use xlink:href="#DejaVuSans-65" transform="translate(3956.746094 0)"/>
     <use xlink:href="#DejaVuSans-63" transform="translate(4018.269531 0)"/>
     <use xlink:href="#DejaVuSans-74" transform="translate(4073.25 0)"/>
     <use xlink:href="#DejaVuSans-20" transform="translate(4112.458984 0)"/>
     <use xlink:href="#DejaVuSans-70" transform="translate(4144.246094 0)"/>
     <use xlink:href="#DejaVuSans-65" transform="translate(4207.722656 0)"/>
     <use xlink:href="#DejaVuSans-72" transform="translate(4269.246094 0)"/>
     <use xlink:href="#DejaVuSans-66" transform="translate(4310.359375 0)"/>
     <use xlink:href="#DejaVuSans-6f" transform="translate(4345.564453 0)"/>
     <use xlink:href="#DejaVuSans-72" transform="translate(4406.746094 0)"/>
     <use xlink:href="#DejaVuSans-6d" transform="translate(4446.109375 0)"/>
     <use xlink:href="#DejaVuSans-61" transform="translate(4543.521484 0)"/>
     <use xlink:href="#DejaVuSans-6e" transform="translate(4604.800781 0)"/>
     <use xlink:href="#DejaVuSans-63" transform="translate(4668.179688 0)"/>
     <use xlink:href="#DejaVuSans-65" transform="translate(4723.160156 0)"/>
     <use xlink:href="#DejaVuSans-20" transform="translate(4784.683594 0)"/>
     <use xlink:href="#DejaVuSans-76" transform="translate(4816.470703 0)"/>
     <use xlink:href="#DejaVuSans-61" transform="translate(4875.650391 0)"/>
     <use xlink:href="#DejaVuSans-6c" transform="translate(4936.929688 0)"/>
     <use xlink:href="#DejaVuSans-69" transform="translate(4964.712891 0)"/>
     <use xlink:href="#DejaVuSans-64" transform="translate(4992.496094 0)"/>
     <use xlink:href="#DejaVuSans-61" transform="translate(5055.972656 0)"/>
     <use xlink:href="#DejaVuSans-74" transform="translate(5117.251953 0)"/>
     <use xlink:href="#DejaVuSans-69" transform="translate(5156.460938 0)"/>
     <use xlink:href="#DejaVuSans-6f" transform="translate(5184.244141 0)"/>
     <use xlink:href="#DejaVuSans-6e" transform="translate(5245.425781 0)"/>
     <use xlink:href="#DejaVuSans-2e" transform="translate(5308.804688 0)"/>
    </g>
   </g>
   <g id="text_14">
    <!-- Performance comparison across datasets -->
    <g transform="translate(226.868438 16.318125) scale(0.12 -0.12)">
     <defs>
      <path id="DejaVuSans-50" d="M 1259 4147 
L 1259 2394 
L 2053 2394 
Q 2494 2394 2734 2622 
Q 2975 2850 2975 3272 
Q 2975 3691 2734 3919 
Q 2494 4147 2053 4147 
L 1259 4147 
z
M 628 4666 
L 2053 4666 
Q 2838 4666 3239 4311 
Q 3641 3956 3641 3272 
Q 3641 2581 3239 2228 
Q 2838 1875 2053 1875 
L 1259 1875 
L 1259 0 
L 628 0 
L 628 4666 
z
" transform="scale(0.015625)"/>
     </defs>
     <use xlink:href="#DejaVuSans-50"/>
     <use xlink:href="#DejaVuSans-65" transform="translate(56.677734 0)"/>
     <use xlink:href="#DejaVuSans-72" transform="translate(118.201172 0)"/>
     <use xlink:href="#DejaVuSans-66" transform="translate(159.314453 0)"/>
     <use xlink:href="#DejaVuSans-6f" transform="translate(194.519531 0)"/>
     <use xlink:href="#DejaVuSans-72" transform="translate(255.701172 0)"/>
     <use xlink:href="#DejaVuSans-6d" transform="translate(295.064453 0)"/>
     <use xlink:href="#DejaVuSans-61" transform="translate(392.476562 0)"/>
     <use xlink:href="#DejaVuSans-6e" transform="translate(453.755859 0)"/>
     <use xlink:href="#DejaVuSans-63" transform="translate(517.134766 0)"/>
     <use xlink:href="#DejaVuSans-65" transform="translate(572.115234 0)"/>
     <use xlink:href="#DejaVuSans-20" transform="translate(633.638672 0)"/>
     <use xlink:href="#DejaVuSans-63" transform="translate(665.425781 0)"/>
     <use xlink:href="#DejaVuSans-6f" transform="translate(720.40625 0)"/>
     <use xlink:href="#DejaVuSans-6d" transform="translate(781.587891 0)"/>
     <use xlink:href="#DejaVuSans-70" transform="translate(879 0)"/>
     <use xlink:href="#DejaVuSans-61" transform="translate(942.476562 0)"/>
     <use xlink:href="#DejaVuSans-72" transform="translate(1003.755859 0)"/>
     <use xlink:href="#DejaVuSans-69" transform="translate(1044.869141 0)"/>
     <use xlink:href="#DejaVuSans-73" transform="translate(1072.652344 0)"/>
     <use xlink:href="#DejaVuSans-6f" transform="translate(1124.751953 0)"/>
     <use xlink:href="#DejaVuSans-6e" transform="translate(1185.933594 0)"/>
     <use xlink:href="#DejaVuSans-20" transform="translate(1249.3125 0)"/>
     <use xlink:href="#DejaVuSans-61" transform="translate(1281.099609 0)"/>
     <use xlink:href="#DejaVuSans-63" transform="translate(1342.378906 0)"/>
     <use xlink:href="#DejaVuSans-72" transform="translate(1397.359375 0)"/>
     <use xlink:href="#DejaVuSans-6f" transform="translate(1436.222656 0)"/>
     <use xlink:href="#DejaVuSans-73" transform="translate(1497.404297 0)"/>
     <use xlink:href="#DejaVuSans-73" transform="translate(1549.503906 0)"/>
     <use xlink:href="#DejaVuSans-20" transform="translate(1601.603516 0)"/>
     <use xlink:href="#DejaVuSans-64" transform="translate(1633.390625 0)"/>
     <use xlink:href="#DejaVuSans-61" transform="translate(1696.867188 0)"/>
     <use xlink:href="#DejaVuSans-74" transform="translate(1758.146484 0)"/>
     <use xlink:href="#DejaVuSans-61" transform="translate(1797.355469 0)"/>
     <use xlink:href="#DejaVuSans-73" transform="translate(1858.634766 0)"/>
     <use xlink:href="#DejaVuSans-65" transform="translate(1910.734375 0)"/>
     <use xlink:href="#DejaVuSans-74" transform="translate(1972.257812 0)"/>
     <use xlink:href="#DejaVuSans-73" transform="translate(2011.466797 0)"/>
    </g>
   </g>
   <g id="legend_1">
    <g id="patch_17">
     <path d="M 50.08125 55.93875 
L 120.433125 55.93875 
Q 122.233125 55.93875 122.233125 54.13875 
L 122.233125 28.618125 
Q 122.233125 26.818125 120.433125 26.818125 
L 50.08125 26.818125 
Q 48.28125 26.818125 48.28125 28.618125 
L 48.28125 54.13875 
Q 48.28125 55.93875 50.08125 55.93875 
z
" style="fill: #ffffff; opacity: 0.8; stroke: #cccccc; stroke-linejoin: miter"/>
    </g>
    <g id="patch_18">
     <path d="M 51.88125 37.256719 
L 69.88125 37.256719 
L 69.88125 30.956719 
L 51.88125 30.956719 
z
" style="fill: #2f6f9f"/>
    </g>
    <g id="text_15">
     <!-- Macro-F1 -->
     <g transform="translate(77.08125 37.256719) scale(0.09 -0.09)">
      <defs>
       <path id="DejaVuSans-46" d="M 628 4666 
L 3309 4666 
L 3309 4134 
L 1259 4134 
L 1259 2759 
L 3109 2759 
L 3109 2228 
L 1259 2228 
L 1259 0 
L 628 0 
L 628 4666 
z
" transform="scale(0.015625)"/>
      </defs>
      <use xlink:href="#DejaVuSans-4d"/>
      <use xlink:href="#DejaVuSans-61" transform="translate(86.279297 0)"/>
      <use xlink:href="#DejaVuSans-63" transform="translate(147.558594 0)"/>
      <use xlink:href="#DejaVuSans-72" transform="translate(202.539062 0)"/>
      <use xlink:href="#DejaVuSans-6f" transform="translate(241.402344 0)"/>
      <use xlink:href="#DejaVuSans-2d" transform="translate(304.458984 0)"/>
      <use xlink:href="#DejaVuSans-46" transform="translate(340.542969 0)"/>
      <use xlink:href="#DejaVuSans-31" transform="translate(398.0625 0)"/>
     </g>
    </g>
    <g id="patch_19">
     <path d="M 51.88125 50.467031 
L 69.88125 50.467031 
L 69.88125 44.167031 
L 51.88125 44.167031 
z
" style="fill: #2c8c84"/>
    </g>
    <g id="text_16">
     <!-- QWK -->
     <g transform="translate(77.08125 50.467031) scale(0.09 -0.09)">
      <defs>
       <path id="DejaVuSans-51" d="M 2522 4238 
Q 1834 4238 1429 3725 
Q 1025 3213 1025 2328 
Q 1025 1447 1429 934 
Q 1834 422 2522 422 
Q 3209 422 3611 934 
Q 4013 1447 4013 2328 
Q 4013 3213 3611 3725 
Q 3209 4238 2522 4238 
z
M 3406 84 
L 4238 -825 
L 3475 -825 
L 2784 -78 
Q 2681 -84 2626 -87 
Q 2572 -91 2522 -91 
Q 1538 -91 948 567 
Q 359 1225 359 2328 
Q 359 3434 948 4092 
Q 1538 4750 2522 4750 
Q 3503 4750 4090 4092 
Q 4678 3434 4678 2328 
Q 4678 1516 4351 937 
Q 4025 359 3406 84 
z
" transform="scale(0.015625)"/>
       <path id="DejaVuSans-57" d="M 213 4666 
L 850 4666 
L 1831 722 
L 2809 4666 
L 3519 4666 
L 4500 722 
L 5478 4666 
L 6119 4666 
L 4947 0 
L 4153 0 
L 3169 4050 
L 2175 0 
L 1381 0 
L 213 4666 
z
" transform="scale(0.015625)"/>
       <path id="DejaVuSans-4b" d="M 628 4666 
L 1259 4666 
L 1259 2694 
L 3353 4666 
L 4166 4666 
L 1850 2491 
L 4331 0 
L 3500 0 
L 1259 2247 
L 1259 0 
L 628 0 
L 628 4666 
z
" transform="scale(0.015625)"/>
      </defs>
      <use xlink:href="#DejaVuSans-51"/>
      <use xlink:href="#DejaVuSans-57" transform="translate(78.710938 0)"/>
      <use xlink:href="#DejaVuSans-4b" transform="translate(177.587891 0)"/>
     </g>
    </g>
   </g>
  </g>
 </g>
 <defs>
  <clipPath id="p62bf260879">
   <rect x="43.78125" y="22.318125" width="613.8" height="310.464"/>
  </clipPath>
 </defs>
</svg>
